<?xml version="1.0" standalone="no"?>
<!DOCTYPE svg PUBLIC "-//W3C//DTD SVG 20010904//EN"
 "http://www.w3.org/TR/2001/REC-SVG-20010904/DTD/svg10.dtd">
<svg version="1.0" xmlns="http://www.w3.org/2000/svg"
 width="4559.000000pt" height="435.000000pt" viewBox="0 0 4559.000000 435.000000"
 preserveAspectRatio="xMidYMid meet">

<g transform="translate(0.000000,435.000000) scale(0.100000,-0.100000)"
fill="#30435A" stroke="none">
<path d="M13174 2945 l-339 -515 -952 0 -953 0 -2 394 -3 394 -387 -316 -388
-317 0 -907 0 -908 390 0 390 0 0 495 0 495 952 -2 951 -3 337 -490 336 -490
443 -3 443 -2 -35 47 c-146 202 -897 1263 -897 1267 0 3 190 286 423 628 233
343 442 651 465 686 l43 62 -439 0 -439 0 -339 -515z"/>
<path d="M35700 3260 c-135 -111 -351 -287 -480 -393 -129 -105 -318 -260
-420 -343 -187 -152 -278 -227 -490 -399 -161 -130 -150 -113 -139 -220 72
-666 536 -1077 1294 -1145 80 -7 474 -10 1190 -7 957 3 1081 5 1170 20 359 63
623 185 819 382 257 257 377 631 345 1078 -43 613 -381 1012 -988 1167 -210
53 -211 53 -1166 57 l-890 3 -245 -200z m1940 -501 c199 -24 320 -76 425 -183
78 -79 125 -162 152 -274 23 -93 23 -304 0 -396 -54 -217 -211 -373 -432 -430
-136 -35 -233 -37 -1275 -33 -906 3 -1033 5 -1091 20 -259 64 -388 173 -466
393 -26 75 -28 88 -27 249 0 159 2 175 27 248 88 253 243 361 587 411 65 9
2022 5 2100 -5z"/>
<path d="M810 2105 l0 -1345 375 0 375 0 0 330 0 329 1188 4 c1037 3 1199 6
1279 20 306 54 499 142 654 296 120 121 184 237 225 416 16 65 19 119 18 290
0 183 -3 220 -22 290 -50 182 -104 279 -221 396 -122 122 -263 199 -465 254
-224 61 -136 58 -1843 62 l-1563 4 0 -1346z m3018 645 c140 -18 209 -45 269
-104 65 -65 88 -133 81 -242 -9 -130 -84 -222 -212 -259 -113 -32 -223 -35
-1313 -35 l-1093 0 0 325 0 325 1093 0 c690 0 1123 -4 1175 -10z"/>
<path d="M5995 2149 c-533 -715 -985 -1320 -1004 -1344 l-33 -45 428 2 427 3
171 233 170 232 1176 0 1175 1 268 219 c147 121 269 221 270 224 1 3 -295 404
-658 890 l-660 885 -380 0 -380 0 -970 -1300z m1701 206 c186 -247 349 -465
362 -482 l24 -33 -736 0 -736 0 367 490 c202 269 371 486 374 482 4 -4 159
-209 345 -457z"/>
<path d="M14840 2105 l0 -1345 390 0 390 0 0 500 0 500 1350 0 1350 0 0 -500
0 -500 395 0 395 0 0 1345 0 1345 -395 0 -395 0 0 -505 0 -505 -1350 0 -1350
0 0 505 0 505 -390 0 -390 0 0 -1345z"/>
<path d="M19770 2105 l0 -1345 390 0 390 0 2 845 3 845 742 -650 742 -650 158
0 158 1 740 649 c407 357 743 649 748 649 4 1 7 -379 7 -844 l0 -845 390 0
390 0 0 1345 0 1345 -362 -1 -363 0 -854 -745 -853 -744 -67 59 c-36 32 -421
367 -854 745 l-789 686 -359 0 -359 0 0 -1345z"/>
<path d="M25203 2658 c4 -861 4 -860 62 -1063 116 -398 411 -667 854 -780 232
-60 242 -60 1256 -60 1014 0 1024 0 1256 60 443 113 738 382 854 780 58 203
58 202 62 1063 l4 792 -395 0 -395 0 -3 -772 -3 -773 -26 -76 c-63 -185 -193
-298 -416 -362 -78 -22 -80 -22 -938 -22 l-860 0 -80 23 c-244 68 -380 201
-429 419 -14 63 -16 170 -16 817 l0 746 -396 0 -395 0 4 -792z"/>
<path d="M29940 3095 l0 -355 795 0 795 0 0 -990 0 -990 395 0 395 0 0 990 0
990 795 0 795 0 0 355 0 355 -1985 0 -1985 0 0 -355z"/>
<path d="M39256 3178 c108 -150 543 -756 966 -1345 l771 -1073 377 0 377 0
919 1277 c505 702 941 1307 967 1345 l48 68 -478 0 -478 -1 -669 -965 c-368
-530 -673 -963 -677 -962 -4 2 -310 436 -679 966 l-672 962 -484 0 -484 0 196
-272z"/>
<path d="M43485 2545 c-341 -492 -756 -1089 -922 -1327 -167 -238 -308 -441
-313 -450 -10 -17 13 -18 433 -18 l444 0 919 1277 c505 702 941 1307 967 1345
l48 68 -478 -1 -478 0 -620 -894z"/>
</g>
</svg>
